<?xml version="1.0" encoding="UTF-8" standalone="no"?>
<svg
   xmlns:dc="http://purl.org/dc/elements/1.1/"
   xmlns:cc="http://creativecommons.org/ns#"
   xmlns:rdf="http://www.w3.org/1999/02/22-rdf-syntax-ns#"
   xmlns:svg="http://www.w3.org/2000/svg"
   xmlns="http://www.w3.org/2000/svg"
   xmlns:sodipodi="http://sodipodi.sourceforge.net/DTD/sodipodi-0.dtd"
   xmlns:inkscape="http://www.inkscape.org/namespaces/inkscape"
   width="210mm"
   height="297mm"
   viewBox="0 0 210 297"
   version="1.1"
   id="svg8"
   inkscape:version="1.0.1 (c497b03c, 2020-09-10)"
   sodipodi:docname="maestro.svg">
  <defs
     id="defs2" />
  <sodipodi:namedview
     id="base"
     pagecolor="#ffffff"
     bordercolor="#666666"
     borderopacity="1.0"
     inkscape:pageopacity="0.0"
     inkscape:pageshadow="2"
     inkscape:zoom="0.24748737"
     inkscape:cx="-567.72615"
     inkscape:cy="560"
     inkscape:document-units="mm"
     inkscape:current-layer="layer1"
     inkscape:document-rotation="0"
     showgrid="false"
     inkscape:window-width="1252"
     inkscape:window-height="933"
     inkscape:window-x="0"
     inkscape:window-y="863"
     inkscape:window-maximized="0" />
  <metadata
     id="metadata5">
    <rdf:RDF>
      <cc:Work
         rdf:about="">
        <dc:format>image/svg+xml</dc:format>
        <dc:type
           rdf:resource="http://purl.org/dc/dcmitype/StillImage" />
        <dc:title />
      </cc:Work>
    </rdf:RDF>
  </metadata>
  <g
     inkscape:label="Layer 1"
     inkscape:groupmode="layer"
     id="layer1">
    <path
       d="M -106.66666,80.624345 H 316.66666 V 216.37566 h -423.33332 z"
       style="fill:#4051b5;fill-opacity:1;fill-rule:nonzero;stroke:none;stroke-width:239.725"
       id="path871" />
    <g
       id="g946"
       transform="translate(66.81994,6.3809558)">
      <g
         id="g873"
         transform="matrix(0.35277761,-3.4043039e-4,3.4043039e-4,0.35277761,-109.52273,114.05666)">
        <g
           id="g875"
           transform="translate(0,0.874968)">
          <g
             id="g877"
             transform="translate(0,9.099666)">
            <path
               d="m 12.475128,-7.821392 v 0 h 13.671373 c 0,0 4.955872,0 5.810333,6.152117 v 0 L 49.04605,82.580561 c 0,0 0,1.367137 0.854461,1.367137 v 0 c 0,0 1.025353,0 4.272304,-23.583118 v 0 c 0,0 1.367137,-11.962451 3.246951,-19.823491 v 0 h -0.341784 c 0,0 3.246951,-16.747432 4.272304,-26.488285 v 0 c 0,0 0.512676,-1.367137 1.025353,-3.246951 v 0 -0.683568 c 0,0 2.221598,-17.601893 4.272304,-17.601893 v 0 l 1.879814,-0.341784 h 15.03851 c 0,0 5.297657,0 5.297657,5.297657 v 0 19.82349 c 0,0 0,1.025353 -0.683569,2.050706 v 0 l 0.341785,1.879814 c 0,0 -0.341785,0.683569 -0.341785,1.025353 v 0 h -0.683568 v 2.905167 c 0,0 1.367137,0 1.367137,3.930519 v 0 c 0,0 0,2.734275 -0.341784,12.64602 v 0 c 0,0 0.341784,12.304236 1.196245,21.874197 v 0 L 89.3766,65.320453 c 0,0 0.341785,2.39249 0.341785,4.614088 v 0 3.93052 c 0,0 0,0.854461 0.341784,1.538029 v 0 l -0.341784,0.683569 c 0,0 0.341784,26.830071 0.341784,28.026311 v 0 c 0,0 0,4.78498 0.341784,17.6019 v 0 c 0,0 0,4.2723 -5.810333,4.2723 v 0 h -7.177471 c 0,0 -4.272304,0 -4.272304,-5.46855 v 0 -9.22818 c 0,0 0,-1.19624 1.025353,-2.56338 v 0 h -0.341784 c 0,0 0,-1.02535 1.196245,-1.02535 v 0 -0.68357 c 0,0 -1.879814,0 -1.879814,-1.19625 v 0 -2.90516 c 0,0 0,-1.87982 0.341784,-4.955874 v 0 c 0,0 0,-0.341785 -0.341784,-0.341785 v 0 l 0.341784,-3.588735 V 81.896992 c 0,0 0,-0.85446 0.341785,-1.538029 v 0 c 0,0 -0.683569,-1.196245 -0.683569,-2.905167 v 0 c 0,0 0,-15.209402 -1.025353,-35.374677 v 0 c 0,0 0,-4.955873 1.367137,-6.493902 v 0 c 0,0 -0.683568,0 -1.025353,-2.221599 v 0 h -0.341784 c 0,0 -1.196245,0 -4.272304,23.754011 v 0 l -9.399069,53.831031 c 0,0 -0.512676,0 -2.563382,3.93052 v 0 c 0,0 0.854461,0 0.854461,0.68357 v 0 0.34178 c 0,0 -0.854461,2.56339 -0.854461,2.90517 v 0 c 0,0 0,0.34178 0.341784,1.02535 v 0 c 0,0 0,6.4939 -4.955873,6.4939 v 0 h -3.588735 c 0,0 -5.297657,0 -5.297657,-9.74085 v 0 c 0,0 -0.512676,0 -1.196245,-1.02535 v 0 l 0.341784,-2.56338 -9.911745,-53.831035 1.708921,0.512676 c 0,0 0,-0.512676 0.341785,-1.196245 v 0 l -0.683569,-0.341784 -1.708921,0.341784 -4.784981,-20.848843 0.341784,-0.683569 -0.683568,-2.39249 h 0.341784 c 0,0 -0.512676,-1.53803 -1.025353,-1.53803 v 0 h -0.341784 c 0,0 0,0.683569 -0.341785,0.683569 v 0 l 0.341785,2.563382 v 2.221598 c 0,0 0,15.209403 0.683568,35.887354 v 0 c 0,0 -0.683568,20.165275 -0.683568,35.374683 v 0 14.01315 c 0,0 -0.854461,1.53803 -3.246951,2.56338 v 0 c 0,0 -1.196245,-0.68356 -1.879814,-0.68356 v 0 c 0,0 -0.854461,0.68356 -4.955873,1.02535 v 0 c 0,0 -6.835686,0 -6.835686,-4.27231 v 0 -2.56338 c 0,0 0,-2.56338 0.341784,-2.90516 v 0 L 8.202824,114.5374 c 0,0 0.341784,-24.0958 0.341784,-34.862006 v 0 c 0,0 0,-5.639441 1.196245,-7.861039 v 0 c 0,0 -0.854461,0 -0.854461,-0.683569 v 0 c 0,0 -0.683568,-25.29204 -1.367137,-76.388796 v 0 c 0,0 0,-2.563382 4.955873,-2.563382 z m 35.716462,112.788822 -0.683569,0.1709 -0.170892,0.51267 0.341784,0.68357 0.341784,0.17089 0.512677,-0.34178 0.341784,-0.34179 v -0.51267 z M 123.04236,-7.308716 v 0 h 19.82349 c 0,0 5.12676,0 5.12676,7.861039 v 0 c 0,0 2.73428,14.696726 7.00658,52.976571 v 0 c 0,0 2.56338,15.892971 9.56996,69.211326 v 0 c 0,0 0,1.36714 -2.0507,2.90517 v 0 H 150.3851 c 0,0 -4.44319,0 -5.29765,-15.3803 v 0 c 0,0 0.34178,-0.51267 0.34178,-1.36714 v 0 c 0,0 -1.02535,0 -2.90517,-17.430997 v 0 h -0.34178 c 0,0 -2.2216,0 -19.13992,0.341785 v 0 c 0,0 -3.24695,17.943682 -4.61409,32.469512 v 0 c 0,0 -2.2216,1.70892 -2.56338,1.70892 v 0 c 0,0 -7.51926,-0.34178 -11.27889,-0.34178 v 0 c 0,0 -2.73427,0 -3.58873,-2.90517 v 0 c 0,0 0,-4.61409 2.56338,-6.6648 v 0 c 0,0 -1.53803,-1.87981 -1.53803,-2.56338 v 0 c 0,0 3.93052,-30.589695 6.15212,-30.589695 v 0 h 0.68357 c 0,0 -1.87982,-1.879813 -1.87982,-2.734274 v 0 c 0,0 3.75963,-28.197207 4.95588,-28.197207 v 0 l 1.87981,-0.341784 v -0.341785 c 0,0 0,-0.683568 -2.2216,-0.683568 v 0 c 0,0 7.17747,-51.951217 8.54461,-56.565306 v 0 c 0,0 1.53803,-1.367137 2.90517,-1.367137 z m 10.93709,23.412226 h -0.68356 c 0,0 -2.05071,18.285461 -4.95588,25.975609 v 0 h -0.34178 c 0,0 0,0.341784 1.36714,2.221598 v 0 c 0,0 0,1.538029 -0.68357,2.734274 v 0 l 0.34178,0.683569 c 0,0 -3.41784,23.070442 -3.41784,27.000962 v 0 c 0,0 0.34178,0 0.34178,0.512676 v 0 c 0,0 4.10141,-0.512676 5.98123,-0.512676 v 0 h 8.54461 c 0,0 0.68356,0 0.68356,-0.683569 v 0 c 0,0 -4.2723,-28.368099 -5.63944,-47.849805 v 0 c 0,0 -0.51267,0 -1.53803,-10.082638 z m 22.38688,95.52872 -0.68357,0.17089 -0.17089,0.51268 0.85446,0.51267 0.34178,-0.34178 z m 0.34178,-1.19625 0.34179,-0.17089 0.17089,-0.34178 -0.68357,-0.51268 -0.17089,0.34179 h 0.34178 z M 180.46212,-7.479608 v 0 h 14.69673 c 0,0 1.19624,0 2.56338,1.025353 v 0 h 1.36714 c 0,0 1.87981,0 1.87981,-0.683569 v 0 c 0,0 0.34179,0 0.34179,0.341785 v 0 c 0,0 3.58873,-0.341785 5.29765,-0.341785 v 0 h 11.27889 c 0,0 4.61408,0 4.61408,5.297657 v 0 l -0.51267,2.563383 c 0,0 0.51267,0.683568 0.51267,1.025353 v 0 c 0,0 0,1.025353 -1.19624,1.025353 v 0 1.025353 l 1.19624,1.367137 v 0.341784 c 0,0 0,3.588736 -3.93052,3.588736 v 0 h -4.61408 c 0,0 -0.34179,0 -0.34179,0.341784 v 0 c 0,0 -0.51268,0 -0.51268,-0.341784 v 0 c 0,0 -1.70892,0 -4.10141,0.341784 v 0 c 0,0 -6.83568,-0.341784 -12.9878,-0.341784 v 0 -0.341785 c 0,0 -0.68357,0.341785 -1.87981,0.341785 v 0 3.588735 c 0,0 0,2.39249 -0.34179,2.734275 v 0 c 0,0 0.34179,2.39249 0.34179,3.930519 v 0 7.690148 c 0,0 0,1.367137 -0.34179,3.930519 v 0 c 0,0 0.34179,0.512677 0.34179,1.367138 v 0 c 0,0 0,0.85446 -0.34179,1.367137 v 0 c 0,0 0.34179,2.563382 0.34179,3.93052 v 0 4.614088 c 0,0 0,0.341784 -0.34179,0.341784 v 0 c 0,0 0.51268,4.272304 1.02535,5.297657 v 0 c 0,0 -0.68356,0.170892 -0.68356,1.025353 v 0 0.683569 h 2.22159 c 0,0 0,-2.050706 1.02536,-2.050706 v 0 c 0,0 3.93052,0 7.17747,0.341784 v 0 c 0,0 3.58873,-0.341784 6.15211,-0.341784 v 0 c 0,0 5.98123,0 5.98123,4.78498 v 0 8.544608 c 0,0 0,3.93052 -3.58874,3.93052 v 0 h -17.431 c 0,0 -0.51267,0 -0.51267,-0.341784 v 0 c 0,0 -0.68357,0.341784 -1.02535,0.341784 v 0 c 0,0 0,2.050706 0.34178,8.7155 v 0 c 0,0 0,2.221599 -0.34178,5.297657 v 0 c 0,0 0.34178,5.639442 0.34178,11.449775 v 0 1.367138 c 0,0 0,1.708921 -0.34178,4.101411 v 0 c 0,0 0.68356,1.879814 0.68356,7.519253 v 0 1.36714 c 0,0 0,0.34178 0.34179,0.34178 v 0 l -0.34179,0.68357 v 2.56339 c 0,0 0.1709,0.68356 0.85446,0.68356 v 0 h 24.26669 c 0,0 3.93052,0 3.93052,4.27231 v 0 c 0,0 0,1.53803 -0.34178,2.39249 v 0 c 0,0 0.34178,2.39249 0.34178,3.75963 v 0 2.90516 c 0,0 0,3.24695 -6.4939,3.24695 v 0 c 0,0 -2.2216,0 -8.37372,0.68357 v 0 c 0,0 -1.02535,0 -1.02535,-0.34178 v 0 c 0,0 -4.78498,0.34178 -7.00658,0.34178 v 0 H 191.741 c 0,0 -3.24695,0 -7.34836,0.34179 v 0 c 0,0 -7.86104,0 -7.86104,-3.93052 v 0 c 0,0 0,-12.98781 0.34179,-12.98781 v 0 c 0,0 -0.68357,-1.19624 -0.68357,-2.0507 v 0 -30.418808 l 0.34178,-1.708922 c 0,0 0,-1.025353 -0.68357,-2.221598 v 0 c 0,0 0.34179,-5.126765 0.34179,-8.7155 v 0 -1.025353 l 1.02535,-1.367137 v -0.854461 c 0,0 0,-0.683569 -0.68357,-0.683569 v 0 l 0.34179,-1.708921 v -0.341785 c 0,0 -1.02536,-1.367137 -1.02536,-3.246951 v 0 -1.708921 c 0,0 0,-1.53803 0.68357,-2.905167 v 0 c 0,0 -0.68357,-1.367137 -0.68357,-4.101412 v 0 -0.341784 c 0,0 0,-1.196246 0.34179,-3.246951 v 0 c 0,0 -0.68357,-1.196246 -0.68357,-2.734275 v 0 -21.874197 c 0,0 0,-1.538029 -0.34178,-3.930519 v 0 l 0.34178,-0.683569 c 0,0 -0.34178,-5.981226 -0.34178,-9.228177 v 0 -4.443196 c 0,0 0,-1.879814 1.02535,-1.879814 v 0 -0.341784 c 0,0 -1.02535,0 -1.02535,-1.708922 v 0 -0.341784 c 0,0 0,-3.246951 5.29765,-3.246951 z m 31.10238,5.126765 -0.1709,-0.512677 -0.34178,0.341785 -0.17089,0.341784 v 0.170892 l 0.17089,0.341784 0.34178,-0.170892 0.1709,-0.170892 z m 45.96999,-6.493902 v 0 h 3.93052 c 0,0 16.23475,0 23.41222,15.03851 v 0 c 0,0 2.2216,4.443196 2.2216,17.431 v 0 c 0,0 -0.68357,3.076059 -3.24695,3.076059 v 0 c 0,0 -2.05071,-0.341784 -3.24695,-1.367137 v 0 c 0,0 0,0.512676 -1.02535,1.025353 v 0 c 0,0 -2.90517,0 -7.51926,0.341784 v 0 c 0,0 -2.2216,0 -2.73427,-3.076059 v 0 -6.835686 c 0,0 0,-6.493902 -7.17747,-8.886393 v 0 h -4.61409 c 0,0 -7.34837,0 -8.8864,11.79156 v 0 c 0,0 1.70893,9.569961 5.98123,15.551186 v 0 c 0,0 0,0.854461 19.99438,30.247913 v 0 c 0,0 12.81692,21.36152 12.81692,32.298618 v 0 c 0,0 -1.36714,16.918327 -4.61409,17.089217 v 0 c 0,0 -1.02536,0 -1.02536,1.02535 v 0 l -2.56338,-0.34178 v 1.19624 h 1.02535 v 2.39249 c 0,0 -4.44319,5.63945 -7.51925,5.63945 v 0 l -0.68357,-0.34179 c 0,0 0,2.05071 -10.59531,2.90517 v 0 c 0,0 -30.24792,0 -30.24792,-34.520219 v 0 -0.683569 c 0,0 0.68357,-3.588735 3.58874,-3.588735 v 0 h 2.90517 c 0,0 1.19624,0 3.07606,-0.341785 v 0 c 0,0 0.68356,0.341785 1.02535,0.341785 v 0 c 0,0 3.24695,-0.341785 3.93052,-0.341785 v 0 c 0,0 4.61409,0 4.61409,5.297657 v 0 4.614089 c 0,0 0,12.133342 10.7662,12.133342 v 0 c 0,0 8.88639,0 8.88639,-9.91174 v 0 -2.563387 c 0,0 0,-10.082637 -26.65917,-47.508021 v 0 c 0,0 -11.44978,-18.969029 -11.44978,-29.906128 v 0 V 18.496 c 0,0 0,-7.006578 0.85446,-7.690147 0,0 0.85446,-0.683568 0.85446,-1.538029 v 0 c 0,0 0,-5.126765 8.20283,-12.816912 v 0 c 0,0 6.66479,-5.297657 15.72208,-5.297657 z m 19.99438,28.197206 v 0.683569 l -0.17089,0.170892 0.85446,-0.341784 h -0.17089 z m 0.85446,-1.367137 h -0.17089 l -0.34179,0.341784 0.34179,0.512677 0.51267,-0.170892 z m -0.68357,-0.512677 1.19625,0.341785 0.51267,-0.341785 -0.51267,-1.025353 h -0.51268 z m 70.74936,-24.950255 v 0 c 0,0 3.24695,0 3.24695,4.955873 v 0 5.126764 c 0,0 0,6.835687 -4.27231,6.835687 v 0 h -14.69672 c 0,0 -0.68357,0 -0.68357,0.683569 v 0 2.39249 c 0,0 0,1.196245 -0.34178,1.196245 v 0 c 0,0 0,0.341784 0.34178,1.025353 v 0 c 0,0 0.34178,8.886392 0.34178,14.013157 v 0 4.272304 c 0,0 0,2.39249 -0.34178,4.784981 v 0 c 0,0 0.34178,1.367137 0.34178,3.930519 v 0 2.905167 c 0,0 -0.68356,2.39249 -0.68356,2.734275 v 0 h 0.34178 v 2.905166 c 0,0 0.68357,0 0.68357,0.683569 v 0 c 0,0 0,1.708922 -0.68357,3.076059 v 0 c 0,0 0.34178,4.272304 0.68357,4.272304 v 0 c 0,0 0,0.341784 -0.34179,0.341784 v 0 c 0,0 0.34179,1.879814 0.34179,2.734275 v 0 c 0,0 -0.68357,20.336167 -0.68357,21.532412 v 0 h 0.34178 l -0.34178,0.683569 v 5.981226 c 0,0 0,1.879813 0.34178,2.39249 v 0 c 0,0 -0.34178,1.879814 -0.34178,2.221598 v 0 c 0,0 0.34178,14.184052 0.34178,19.652602 v 0 h 0.34179 l -0.34179,0.68357 c 0,0 0.34179,5.29765 0.34179,8.03193 v 0 c 0,0 0,3.58873 -5.29766,3.58873 v 0 h -2.90517 c 0,0 -2.90516,0 -7.00657,0.34179 v 0 c 0,0 -3.07606,-0.85446 -3.07606,-2.90517 v 0 l 0.34178,-2.39249 c 0,0 -0.34178,-1.70892 -0.34178,-2.73427 v 0 c 0,0 0.68357,0 0.68357,-0.68357 v 0 -0.68357 c 0,0 -1.02536,-3.24695 -1.02536,-12.47513 v 0 -12.304236 c 0,0 0,-1.367137 -0.34178,-3.93052 v 0 c 0,0 1.36714,-3.759627 1.36714,-4.443196 v 0 -0.341784 c 0,0 -1.02536,0 -1.02536,-1.708922 v 0 -31.61505 c 0,0 0,-0.85446 -0.34178,-1.367137 v 0 c 0,0 0.51268,-1.879814 1.70892,-3.246951 v 0 -0.341784 c 0,0 -1.70892,0 -1.70892,-2.905167 v 0 -0.683569 c 0,0 0,-1.196245 0.34178,-1.708921 v 0 c 0,0 -0.85446,-4.955873 -0.85446,-18.798138 v 0 -3.246951 c 0,0 0,-1.367137 0.51268,-3.246951 v 0 c 0,0 -0.51268,-1.196245 -1.19625,-4.955873 v 0 c 0,0 -3.41784,0.341785 -5.29765,0.341785 v 0 h -3.24696 c 0,0 -0.85445,0 -2.0507,-0.683569 v 0 c 0,0 -1.19625,0.341784 -1.19625,0.683569 v 0 L 300.08664,9.7805 c 0,0 -3.41785,0.683569 -3.93052,0.683569 v 0 c 0,0 -2.90517,0 -2.90517,-12.64602 v 0 -0.683569 c 0,0 0,-3.930519 6.32301,-3.930519 v 0 c 0,0 39.3052,-0.683569 48.87516,-0.683569 z M 323.66975,99.840669 h -0.51267 l 0.17089,1.196241 1.70892,0.34179 0.17089,-0.68357 -0.68357,-0.68357 -0.34178,-0.341783 z m 0.1709,-2.39249 -0.85447,0.170892 v 0.683569 l 0.1709,0.341784 0.51267,0.170892 z M 391.17216,-7.821392 v 0 c 0,0 16.40564,0 23.24133,14.867618 v 0 c 0,0 1.87982,5.810333 2.56338,12.987804 v 0 3.417843 c 0,0 0,1.025353 0.34179,1.025353 v 0 l -0.34179,1.879814 v 10.424422 c 0,0 0,18.798137 -10.59531,26.488285 v 0 c 0,0 0,1.367137 -6.15212,4.955872 v 0 c 0,0 4.27231,12.304236 11.96245,30.077021 v 0 c 0,0 9.05729,23.07044 9.05729,25.80472 v 0 0.34178 c 0,0 0,2.56338 -16.91833,2.56338 v 0 c 0,0 -2.90516,0 -8.37371,-19.13992 v 0 c 0,0 -9.39907,-25.121147 -12.98781,-36.741814 v 0 l -0.85446,-0.341784 h -1.70892 c 0,0 -0.34178,0 -1.19624,1.196245 v 0 c 0,0 0.51267,8.544608 0.51267,12.64602 v 0 15.892973 c 0,0 0,0.34178 -0.51267,0.34178 v 0 c 0,0 0.85446,1.70892 0.85446,4.78498 v 0 8.37372 c 0,0 0,3.75963 0.68357,10.08264 v 0 l -1.02536,0.68357 0.34179,0.68356 c 0,0 -0.51268,1.53803 -3.24695,1.53803 v 0 h -8.37372 c 0,0 -1.36714,0 -3.24695,0.34179 v 0 c 0,0 -3.24695,-0.51268 -3.24695,-4.27231 v 0 -5.12676 l 0.34178,-2.2216 c 0,0 -0.68357,-1.87981 -0.68357,-5.12677 v 0 c 0,0 0.51268,0 1.02536,-1.02535 v 0 l -1.02536,-1.36713 v -3.75963 c 0,0 0,-1.70892 -0.51267,-3.58874 v 0 c 0,0 0.51267,-1.367135 0.51267,-2.905164 v 0 h -0.51267 l 0.51267,-0.683569 V 95.91015 c 0,0 0,-0.512677 -0.51267,-0.512677 v 0 c 0,0 0.51267,-1.708921 1.53803,-1.708921 v 0 -0.683569 h -1.53803 v -0.512677 l 0.85446,-2.39249 c 0,0 -0.85446,0 -0.85446,-0.854461 v 0 l 0.68357,-8.373716 c 0,0 0,-0.341784 -0.34179,-0.341784 v 0 c 0,0 0,-0.341784 0.34179,-0.341784 v 0 c 0,0 -0.34179,-4.955873 -0.34179,-7.177471 v 0 -9.057285 l -0.34178,-3.759627 c 0,0 0.51267,0 1.19624,-1.025353 v 0 c 0,0 -1.02535,0 -1.19624,-1.367137 v 0 c 0,0 0,-1.53803 0.34178,-4.101412 v 0 c 0,0 0,-0.341785 -0.34178,-1.025353 v 0 c 0,0 0,-0.341785 0.34178,-2.221598 v 0 l -0.34178,-12.64602 0.34178,-2.050706 V -3.378196 c 0,0 0.68357,-4.101412 3.93052,-4.101412 v 0 c 0,0 16.57654,-0.341784 25.80472,-0.341784 z m 0,17.772784 h -12.30424 l -0.34178,2.221598 c 0,0 0.68357,4.784981 0.68357,10.424422 v 0 20.677952 c 0,0 0,3.076059 0.51267,9.740853 v 0 l 0.68357,0.512677 h 4.61409 c 0,0 9.56996,0 12.30424,-4.784981 v 0 c 0,0 0,-0.683569 1.87981,-0.683569 v 0 -0.341784 c 0,0 0,-1.367137 -0.34179,-3.246951 v 0 l 1.02536,-1.879814 -0.68357,-1.025353 c 0,0 0,-1.196245 0.34178,-1.196245 v 0 l -0.34178,-1.708922 v -8.031931 c 0,0 0,-2.905167 -0.34179,-7.690147 v 0 c 0,0 0.68357,-1.367138 0.68357,-2.050706 v 0 c 0,0 -0.68357,0 -2.56338,-6.493902 v 0 c 0,0 -3.07606,-4.443197 -5.81033,-4.443197 z m -16.74743,-0.683568 0.17089,0.170892 V 8.926039 h -0.34179 v 0.341785 z m -6.83569,-8.715501 h -0.68357 v 0.683569 z m 41.01412,5.981226 h -1.19625 l 0.34179,1.025353 0.85446,0.512677 z M 368.4435,-2.011059 v 0.512677 h 0.51268 l 0.17089,-0.341785 -0.17089,-0.341784 z m 92.62355,-7.861039 v 0 h 1.02535 c 0,0 7.34837,1.708921 12.30424,3.588735 v 0 c 0,0 10.08264,9.057285 10.08264,16.234755 v 0 c 0,0 0,0.683569 -0.68357,0.683569 v 0 c 0,0 -0.68357,-0.341784 -1.02535,-0.341784 v 0 0.341784 c 0,0 2.90516,1.367137 2.90516,4.784981 v 0 c 0,0 0.34179,3.417843 0.34179,6.835686 v 0 5.468549 c 0,0 0,1.879814 -0.68357,4.443196 v 0 c 0,0 0.34178,0.512677 0.34178,1.367138 v 0 h -0.34178 c 0,0 1.02535,1.538029 1.02535,14.867618 v 0 2.905166 l 0.34179,4.272304 c 0,0 -0.51268,0 -1.02536,1.196246 v 0 c 0,0 1.36714,1.196245 1.36714,7.519255 v 0 17.089216 c 0,0 0,3.588735 0.34179,9.057284 v 0 c 0,0 -0.34179,1.025353 -0.34179,4.272304 v 0 c 0,0 0.34179,4.614089 0.34179,4.784981 v 0 c 0,0 -2.05071,14.184045 -4.27231,14.184045 v 0 c 0,0 -5.46855,13.32959 -24.95025,13.32959 v 0 h -0.85447 c 0,0 -9.91174,0 -15.55118,-4.78498 v 0 0.51268 c 0,0 -2.56339,0 -8.7155,-8.7155 v 0 c 0,0 -3.24695,-5.46855 -3.24695,-14.525835 v 0 H 429.452 c 0,0 0.34179,-0.683569 0.34179,-1.025353 v 0 c 0,0 0,-1.879814 -0.34179,-7.348363 v 0 c 0,0 0.34179,-2.050706 0.34179,-2.905167 v 0 H 429.452 c 0,0 0,-0.341784 0.34179,-0.341784 v 0 L 429.452,83.605914 v -0.512677 c 0,0 0,-2.221598 0.34179,-4.614088 v 0 c 0,0 -0.68357,-6.664794 -1.02536,-7.690147 v 0 c 0,0 0.68357,-1.879814 0.68357,-7.519255 v 0 -19.652599 l 0.34179,-0.683568 0.85446,0.341784 h 0.68357 v -1.025353 c 0,0 -2.2216,-1.025353 -2.2216,-8.7155 v 0 -1.367138 c 0,0 0,-1.367137 0.34178,-1.879813 v 0 c 0,0 -0.34178,-2.563383 -0.34178,-3.93052 v 0 -0.854461 c 0,0 0,-24.437579 10.59531,-30.418805 v 0 c 0,0 4.10141,-4.443196 21.36152,-4.955872 z M 464.314,7.046226 461.40884,6.704441 c 0,0 -0.68357,0 -0.68357,-0.683568 v 0 c 0,0 -8.7155,0 -11.62067,4.272304 v 0 c 0,0 -1.53803,3.246951 -1.53803,9.399069 v 0 h 0.34178 c 0,0 0,2.39249 -2.39248,5.468549 v 0 c 0,0 1.70892,0 2.0507,2.563382 v 0 c 0,0 0,0.683569 -0.34178,0.683569 v 0 c 0,0 0.34178,6.835686 0.34178,9.911745 v 0 10.766206 c 0,0 0,1.53803 0.34178,4.101412 v 0 c 0,0 -0.34178,0.341785 -0.34178,2.734275 v 0 h 0.34178 l -0.34178,0.854461 c 0,0 0.34178,3.930519 0.34178,6.835686 v 0 c 0,0 0,1.367137 -2.0507,3.246951 v 0 0.341784 c 0,0 2.39249,2.221599 2.39249,6.493903 v 0 l -0.34179,2.221598 c 0,0 0.85447,2.39249 0.85447,3.246951 v 0 21.361522 c 0,0 0,5.98122 2.81972,7.94648 0,0 2.81972,1.96526 7.94648,1.96526 v 0 c 0,0 2.73428,0 4.78498,-0.85446 v 0 c 0,0 4.27231,-2.39249 4.27231,-6.83568 v 0 l -0.68357,-52.463898 0.34178,-1.879813 c 0,0 -0.68357,-3.759628 -0.68357,-13.329589 v 0 -4.78498 c 0,0 0,-0.854461 -0.34178,-1.53803 v 0 c 0,0 0,-0.341784 0.34178,-0.341784 v 0 c 0,0 -0.34178,-4.272304 -0.34178,-6.152118 v 0 -5.297657 c 0,0 0,-5.297657 -3.24695,-9.911745 v 0 z m 17.77279,73.654521 v 0 l 0.68357,0.341785 h 0.34178 v -1.196246 h -0.34178 c 0,0 -0.68357,0.170893 -0.68357,0.854461 z"
               style="fill:#f7f3e8;fill-opacity:1;fill-rule:nonzero;stroke:none"
               id="path879" />
          </g>
        </g>
      </g>
      <g
         id="g881"
         transform="matrix(0.35277777,0,0,0.35277777,113.89683,104.52908)">
        <g
           id="g883"
           transform="matrix(2.494049,0,0,2.494049,-26.436917,-26.436917)">
          <g
             id="g885">
            <path
               d="M 77.8,22.2 50,10.6 22.2,22.2 10.6,50 22.1,77.8 50,89.4 77.8,77.9 89.4,50 Z m 9.1,26.3 -12.5,-3.4 c 0,-0.2 0,-0.4 0,-0.6 0,-2 -1.1,-3.8 -2.7,-4.8 L 77.3,25 Z M 45.8,60.3 C 45.5,58 44.2,56.1 42.3,55 l 5,-12.1 c 0.9,0.3 1.8,0.4 2.7,0.4 0.9,0 1.9,-0.1 2.7,-0.4 l 6.2,15 c -0.8,0.6 -1.4,1.4 -1.6,2.4 z m 15.4,-3.1 c -0.2,0 -0.4,0 -0.7,0.1 l -6.2,-15 c 1.3,-0.7 2.3,-1.7 3.1,-2.9 l 6.2,3.4 c -0.2,0.6 -0.3,1.2 -0.3,1.8 0,1.9 1,3.6 2.4,4.6 L 62,57.3 C 61.7,57.2 61.5,57.2 61.2,57.2 Z M 38.7,54 c -0.8,0 -1.6,0.1 -2.3,0.4 L 30.8,42.8 c 0.9,-0.7 1.5,-1.8 1.5,-3.1 0,0 0,0 0,-0.1 l 9.3,-2.3 c 0.7,2.1 2.2,3.9 4.2,4.9 l -5,12 C 40.1,54.1 39.4,54 38.7,54 Z M 68.8,39.1 c -1.8,0 -3.3,0.8 -4.3,2.1 l -6.2,-3.4 c 0.5,-1.1 0.7,-2.3 0.7,-3.5 0,-1 -0.2,-1.9 -0.5,-2.8 l 17,-7.1 -5.5,14.8 c -0.4,-0.1 -0.8,-0.1 -1.2,-0.1 z m -27.7,-3.5 -9.3,2.3 c -0.7,-1.3 -2,-2.2 -3.6,-2.2 -0.1,0 -0.2,0 -0.3,0 l -3.6,-11.3 17.1,7.1 c -0.3,0.9 -0.5,1.8 -0.5,2.8 0.1,0.5 0.1,0.9 0.2,1.3 z m -15.7,6.9 c 0.7,0.7 1.7,1.2 2.8,1.2 0.3,0 0.6,0 0.9,-0.1 l 5.6,11.6 c -1,0.6 -1.8,1.5 -2.4,2.5 L 13.6,50 Z M 63.6,58 67.4,49.9 c 0.5,0.1 1,0.2 1.5,0.2 2.2,0 4.2,-1.3 5,-3.2 L 86,50.1 64.5,59 C 64.3,58.6 63.9,58.3 63.6,58 Z M 76.7,24 Z m -18.9,5.9 c -1.4,-2.5 -4,-4.2 -6.9,-4.5 V 12.9 l 24,9.9 z m -8.7,-17 v 12.5 c -3,0.3 -5.5,2 -6.9,4.5 L 25.1,22.8 Z m -26.3,12.3 3.5,11 c -1.2,0.7 -2,2 -2,3.4 0,0.5 0.1,0.9 0.3,1.4 L 13.4,48.1 Z M 12.7,49.5 Z m 0.5,2.1 18.5,7.7 c -0.2,0.6 -0.3,1.2 -0.3,1.9 0,1.7 0.6,3.2 1.6,4.5 l -9.9,10 z m 10.3,24.9 z m 0.9,0.4 9.9,-10 c 1.2,0.9 2.7,1.5 4.4,1.5 0.7,0 1.4,-0.1 2,-0.3 l 7.7,18.7 z m 17.9,-9.5 c 1.9,-1.1 3.3,-3.1 3.5,-5.4 h 11.5 c 0.2,1 0.8,1.9 1.7,2.4 l -9,21.7 z m 18.3,-2.3 c 0.2,0 0.4,0.1 0.6,0.1 0.8,0 1.5,-0.2 2.1,-0.6 l 12.3,12.3 -24,9.9 z M 76.9,75.6 64.5,63.3 c 0.4,-0.6 0.6,-1.3 0.6,-2.1 0,-0.2 0,-0.4 -0.1,-0.6 l 21.7,-9 z M 87.3,49.5 Z"
               style="fill:#f7f3e8;fill-opacity:1;fill-rule:nonzero;stroke:none"
               id="path887" />
          </g>
        </g>
      </g>
      <g
         id="g889"
         transform="matrix(0,-0.07090833,0.07090833,0,86.387694,186.10796)">
        <g
           id="g891"
           transform="matrix(15.509079,0,0,15.509079,-124.07263,-713.41762)">
          <g
             id="g893">
            <path
               d="m 8,47.421 h 80 v 1.158 H 8 Z"
               style="fill:#f7f3e8;fill-opacity:1;fill-rule:nonzero;stroke:none"
               id="path895" />
          </g>
        </g>
      </g>
    </g>
  </g>
</svg>
